<svg width="750" height="176" viewBox="0 0 750 176" fill="none" xmlns="http://www.w3.org/2000/svg">
<path fill-rule="evenodd" clip-rule="evenodd" d="M39.3019 132L54 117.17L51.8491 115L35 132L51.8491 149L54 146.83L39.3019 132Z" fill="white"/>
<path d="M704 100.5H594C576.603 100.5 562.5 114.603 562.5 132C562.5 149.397 576.603 163.5 594 163.5H704C721.397 163.5 735.5 149.397 735.5 132C735.5 114.603 721.397 100.5 704 100.5Z" fill="black" fill-opacity="0.15" stroke="white" stroke-opacity="0.06"/>
<path opacity="0.2" d="M650 111H649V151H650V111Z" fill="white"/>
<path d="M692.5 113C703.27 113 712 121.73 712 132.5C712 143.27 703.27 152 692.5 152C681.73 152 673 143.27 673 132.5C673 121.73 681.73 113 692.5 113ZM692.5 116C683.387 116 676 123.387 676 132.5C676 141.613 683.387 149 692.5 149C701.613 149 709 141.613 709 132.5C709 123.387 701.613 116 692.5 116ZM692.5 126C696.09 126 699 128.91 699 132.5C699 136.09 696.09 139 692.5 139C688.91 139 686 136.09 686 132.5C686 128.91 688.91 126 692.5 126Z" fill="white"/>
<path d="M596 133C596 135.209 594.209 137 592 137C589.791 137 588 135.209 588 133C588 130.79 589.791 129 592 129C594.209 129 596 130.79 596 133ZM606.5 126C610.089 126 613 128.909 613 132.5C613 136.089 610.089 139 606.5 139C602.911 139 600 136.089 600 132.5C600 128.909 602.911 126 606.5 126ZM621 129C623.209 129 625 130.79 625 133C625 135.209 623.209 137 621 137C618.791 137 617 135.209 617 133C617 130.79 618.791 129 621 129Z" fill="white"/>
</svg>
